# xmcd
#
# Track frame offsets:
# 150
# 16655
# 29777
# 43512
# 57557
# 72322
# 88593
# 106022
# 125067
# 141367
#
# Disc length: 2082 seconds
#
#
# Revision: 0
# Processed by: cddbd v1.5.2PL0 Copyright (c) Steve Scherf et al.
# Submitted via: FreeRIP 2.945 
#
DISCID=8c08200a
DTITLE=Leif Aase - Laissez Les Bon Temps Roulez (Let The Good Times Roll)
DYEAR=1900
DGENRE=Country
TTITLE0=Laissez Les Bon Temps Roulez (Let The Good Times Roll)
TTITLE1=Maybe Once
TTITLE2=I Can't Believe That I'm Not Dreaming
TTITLE3=All I Can Do Is Love You
TTITLE4=It's All About Me Lovin' You (Duet with Monty Holmes)
TTITLE5=Song Of The Still
TTITLE6=Church Street Social Club
TTITLE7=Let Me Be The Man
TTITLE8=It Would Be So Easy
TTITLE9=My Aim's Getting Better All The Time
EXTD=www.platemix.com\nfhoydal@gmail.com
EXTT0=
EXTT1=
EXTT2=
EXTT3=
EXTT4=
EXTT5=
EXTT6=
EXTT7=
EXTT8=
EXTT9=
PLAYORDER=
